<svg width="20" height="30" viewBox="0 0 20 30" fill="none" xmlns="http://www.w3.org/2000/svg">
<path d="M10 30L0 8.77941C1.29167 6.04412 2.78819 3.89706 4.48958 2.33824C6.19097 0.779412 8.02778 0 10 0C11.9722 0 13.809 0.779412 15.5104 2.33824C17.2118 3.89706 18.7083 6.04412 20 8.77941L18.8333 11.2941C17.7083 8.91176 16.3889 7.02206 14.875 5.625C13.3611 4.22794 11.7361 3.52941 10 3.52941C8.56944 3.52941 7.21528 4.00735 5.9375 4.96324C4.65972 5.91912 3.49306 7.25 2.4375 8.95588L11.1667 27.4853L10 30ZM18 28.2353L15.8542 23.7353C15.6042 24.0588 15.3403 24.3015 15.0625 24.4632C14.7847 24.625 14.4861 24.7059 14.1667 24.7059C13.2222 24.7059 12.4306 24.0294 11.7917 22.6765C11.1528 21.3235 10.8333 19.6471 10.8333 17.6471C10.8333 15.6471 11.1528 13.9706 11.7917 12.6176C12.4306 11.2647 13.2222 10.5882 14.1667 10.5882C15.1111 10.5882 15.9028 11.2647 16.5417 12.6176C17.1806 13.9706 17.5 15.6471 17.5 17.6471C17.5 18.3235 17.4618 18.9559 17.3854 19.5441C17.309 20.1324 17.1944 20.6912 17.0417 21.2206L19.1667 25.7647L18 28.2353ZM14.1667 21.1765C14.6389 21.1765 15.0347 20.8382 15.3542 20.1618C15.6736 19.4853 15.8333 18.6471 15.8333 17.6471C15.8333 16.6471 15.6736 15.8088 15.3542 15.1324C15.0347 14.4559 14.6389 14.1176 14.1667 14.1176C13.6944 14.1176 13.2986 14.4559 12.9792 15.1324C12.6597 15.8088 12.5 16.6471 12.5 17.6471C12.5 18.6471 12.6597 19.4853 12.9792 20.1618C13.2986 20.8382 13.6944 21.1765 14.1667 21.1765Z" fill="black"/>
</svg>
