<svg width="32" height="32" viewBox="0 0 32 32" fill="none" xmlns="http://www.w3.org/2000/svg">
<path d="M3.2 32C2.32 32 1.56667 31.7016 0.94 31.1048C0.313333 30.5079 0 29.7905 0 28.9524V10.6667C0 10.0317 0.18 9.46032 0.54 8.95238C0.9 8.44444 1.38667 8.07619 2 7.84762L22.24 0L23.28 2.51429L10.08 7.61905H28.8C29.68 7.61905 30.4333 7.91746 31.06 8.51429C31.6867 9.11111 32 9.82857 32 10.6667V28.9524C32 29.7905 31.6867 30.5079 31.06 31.1048C30.4333 31.7016 29.68 32 28.8 32H3.2ZM3.2 28.9524H28.8V18.2857H3.2V28.9524ZM9.6 27.4286C10.72 27.4286 11.6667 27.0603 12.44 26.3238C13.2133 25.5873 13.6 24.6857 13.6 23.619C13.6 22.5524 13.2133 21.6508 12.44 20.9143C11.6667 20.1778 10.72 19.8095 9.6 19.8095C8.48 19.8095 7.53333 20.1778 6.76 20.9143C5.98667 21.6508 5.6 22.5524 5.6 23.619C5.6 24.6857 5.98667 25.5873 6.76 26.3238C7.53333 27.0603 8.48 27.4286 9.6 27.4286ZM3.2 15.2381H22.4V12.1905H25.6V15.2381H28.8V10.6667H3.2V15.2381Z" fill="#FF0000"/>
<path d="M4.90767 14L4.07528 11.0909H4.74716L5.22869 13.1122H5.25284L5.78409 11.0909H6.35938L6.8892 13.1165H6.91477L7.39631 11.0909H8.06818L7.2358 14H6.63636L6.08239 12.098H6.05966L5.5071 14H4.90767ZM8.38601 14V11.8182H8.99112V14H8.38601ZM8.68999 11.5369C8.60002 11.5369 8.52285 11.5071 8.45845 11.4474C8.395 11.3868 8.36328 11.3144 8.36328 11.2301C8.36328 11.1468 8.395 11.0753 8.45845 11.0156C8.52285 10.955 8.60002 10.9247 8.68999 10.9247C8.77995 10.9247 8.85665 10.955 8.9201 11.0156C8.98449 11.0753 9.01669 11.1468 9.01669 11.2301C9.01669 11.3144 8.98449 11.3868 8.9201 11.4474C8.85665 11.5071 8.77995 11.5369 8.68999 11.5369ZM9.48722 14V11.0909H11.4134V11.598H10.1023V12.2912H11.2855V12.7983H10.1023V14H9.48722ZM11.8157 14V11.8182H12.4208V14H11.8157ZM12.1197 11.5369C12.0297 11.5369 11.9525 11.5071 11.8881 11.4474C11.8247 11.3868 11.793 11.3144 11.793 11.2301C11.793 11.1468 11.8247 11.0753 11.8881 11.0156C11.9525 10.955 12.0297 10.9247 12.1197 10.9247C12.2096 10.9247 12.2863 10.955 12.3498 11.0156C12.4142 11.0753 12.4464 11.1468 12.4464 11.2301C12.4464 11.3144 12.4142 11.3868 12.3498 11.4474C12.2863 11.5071 12.2096 11.5369 12.1197 11.5369Z" fill="#FF0000"/>
<path d="M14.1896 21V18.8182H15.0504C15.2152 18.8182 15.3558 18.8477 15.4723 18.9066C15.5895 18.9648 15.6786 19.0476 15.7397 19.1548C15.8015 19.2614 15.8324 19.3867 15.8324 19.5309C15.8324 19.6758 15.8011 19.8004 15.7386 19.9048C15.6761 20.0085 15.5856 20.0881 15.467 20.1435C15.3491 20.1989 15.2063 20.2266 15.0387 20.2266H14.4624V19.8558H14.9641C15.0522 19.8558 15.1254 19.8437 15.1836 19.8196C15.2418 19.7955 15.2852 19.7592 15.3136 19.7109C15.3427 19.6626 15.3572 19.6026 15.3572 19.5309C15.3572 19.4585 15.3427 19.3974 15.3136 19.3477C15.2852 19.2979 15.2415 19.2603 15.1825 19.2347C15.1243 19.2085 15.0508 19.1953 14.962 19.1953H14.6509V21H14.1896ZM15.3679 20.0071L15.9102 21H15.4009L14.8704 20.0071H15.3679ZM16.6165 21.0309C16.5121 21.0309 16.419 21.0128 16.3374 20.9766C16.2557 20.9396 16.1911 20.8853 16.1435 20.8136C16.0966 20.7411 16.0732 20.6509 16.0732 20.543C16.0732 20.4521 16.0898 20.3757 16.1232 20.3139C16.1566 20.2521 16.2021 20.2024 16.2596 20.1648C16.3171 20.1271 16.3825 20.0987 16.4556 20.0795C16.5295 20.0604 16.6069 20.0469 16.6879 20.0391C16.783 20.0291 16.8597 20.0199 16.918 20.0114C16.9762 20.0021 17.0185 19.9886 17.0447 19.9709C17.071 19.9531 17.0842 19.9268 17.0842 19.892V19.8857C17.0842 19.8182 17.0629 19.766 17.0202 19.729C16.9783 19.6921 16.9187 19.6737 16.8413 19.6737C16.7596 19.6737 16.6946 19.6918 16.6463 19.728C16.598 19.7635 16.5661 19.8082 16.5504 19.8622L16.1307 19.8281C16.152 19.7287 16.1939 19.6428 16.2564 19.5703C16.3189 19.4972 16.3995 19.4411 16.4982 19.402C16.5977 19.3622 16.7127 19.3423 16.8434 19.3423C16.9343 19.3423 17.0213 19.353 17.1044 19.3743C17.1882 19.3956 17.2624 19.4286 17.3271 19.4734C17.3924 19.5181 17.4439 19.5756 17.4815 19.646C17.5192 19.7156 17.538 19.799 17.538 19.8963V21H17.1076V20.7731H17.0948C17.0685 20.8242 17.0334 20.8693 16.9893 20.9084C16.9453 20.9467 16.8924 20.9769 16.8306 20.9989C16.7688 21.0202 16.6974 21.0309 16.6165 21.0309ZM16.7464 20.7177C16.8132 20.7177 16.8722 20.7045 16.9233 20.6783C16.9744 20.6513 17.0146 20.6151 17.0437 20.5696C17.0728 20.5241 17.0874 20.4727 17.0874 20.4151V20.2415C17.0732 20.2507 17.0536 20.2592 17.0288 20.267C17.0046 20.2741 16.9773 20.2809 16.9467 20.2873C16.9162 20.293 16.8857 20.2983 16.8551 20.3033C16.8246 20.3075 16.7969 20.3114 16.772 20.315C16.7188 20.3228 16.6722 20.3352 16.6325 20.3523C16.5927 20.3693 16.5618 20.3924 16.5398 20.4215C16.5178 20.4499 16.5067 20.4854 16.5067 20.5281C16.5067 20.5898 16.5291 20.6371 16.5739 20.6697C16.6193 20.7017 16.6768 20.7177 16.7464 20.7177ZM18.4931 21.0266C18.3688 21.0266 18.2562 20.9947 18.1554 20.9308C18.0552 20.8661 17.9757 20.7713 17.9167 20.6463C17.8585 20.5206 17.8294 20.3665 17.8294 20.1839C17.8294 19.9964 17.8596 19.8406 17.9199 19.7163C17.9803 19.5913 18.0605 19.4979 18.1607 19.4361C18.2615 19.3736 18.372 19.3423 18.492 19.3423C18.5836 19.3423 18.66 19.358 18.7211 19.3892C18.7828 19.4197 18.8326 19.4581 18.8702 19.5043C18.9086 19.5497 18.9377 19.5945 18.9576 19.6385H18.9714V18.8182H19.4242V21H18.9767V20.7379H18.9576C18.9363 20.7834 18.9061 20.8285 18.867 20.8732C18.8287 20.9173 18.7786 20.9538 18.7168 20.983C18.6557 21.0121 18.5811 21.0266 18.4931 21.0266ZM18.6369 20.6655C18.71 20.6655 18.7718 20.6456 18.8223 20.6058C18.8734 20.5653 18.9125 20.5089 18.9395 20.4364C18.9672 20.364 18.981 20.2791 18.981 20.1818C18.981 20.0845 18.9675 20 18.9405 19.9283C18.9135 19.8565 18.8745 19.8011 18.8233 19.7621C18.7722 19.723 18.71 19.7035 18.6369 19.7035C18.5623 19.7035 18.4995 19.7237 18.4483 19.7642C18.3972 19.8047 18.3585 19.8608 18.3322 19.9325C18.3059 20.0043 18.2928 20.0874 18.2928 20.1818C18.2928 20.277 18.3059 20.3612 18.3322 20.4343C18.3592 20.5067 18.3979 20.5636 18.4483 20.6048C18.4995 20.6452 18.5623 20.6655 18.6369 20.6655ZM19.7973 21V19.3636H20.2512V21H19.7973ZM20.0253 19.1527C19.9578 19.1527 19.8999 19.1303 19.8517 19.0856C19.8041 19.0401 19.7803 18.9858 19.7803 18.9226C19.7803 18.8601 19.8041 18.8065 19.8517 18.7617C19.8999 18.7163 19.9578 18.6935 20.0253 18.6935C20.0928 18.6935 20.1503 18.7163 20.1979 18.7617C20.2462 18.8065 20.2703 18.8601 20.2703 18.9226C20.2703 18.9858 20.2462 19.0401 20.1979 19.0856C20.1503 19.1303 20.0928 19.1527 20.0253 19.1527ZM21.354 21.032C21.1886 21.032 21.0455 20.9968 20.9247 20.9265C20.8047 20.8555 20.712 20.7567 20.6467 20.6303C20.5813 20.5032 20.5487 20.3558 20.5487 20.1882C20.5487 20.0192 20.5813 19.8714 20.6467 19.745C20.712 19.6179 20.8047 19.5192 20.9247 19.4489C21.0455 19.3778 21.1886 19.3423 21.354 19.3423C21.5195 19.3423 21.6623 19.3778 21.7823 19.4489C21.9031 19.5192 21.9961 19.6179 22.0614 19.745C22.1268 19.8714 22.1594 20.0192 22.1594 20.1882C22.1594 20.3558 22.1268 20.5032 22.0614 20.6303C21.9961 20.7567 21.9031 20.8555 21.7823 20.9265C21.6623 20.9968 21.5195 21.032 21.354 21.032ZM21.3562 20.6804C21.4315 20.6804 21.4943 20.6591 21.5447 20.6165C21.5952 20.5732 21.6332 20.5142 21.6587 20.4396C21.685 20.3651 21.6982 20.2802 21.6982 20.185C21.6982 20.0898 21.685 20.005 21.6587 19.9304C21.6332 19.8558 21.5952 19.7969 21.5447 19.7536C21.4943 19.7102 21.4315 19.6886 21.3562 19.6886C21.2802 19.6886 21.2163 19.7102 21.1644 19.7536C21.1133 19.7969 21.0746 19.8558 21.0483 19.9304C21.0227 20.005 21.0099 20.0898 21.0099 20.185C21.0099 20.2802 21.0227 20.3651 21.0483 20.4396C21.0746 20.5142 21.1133 20.5732 21.1644 20.6165C21.2163 20.6591 21.2802 20.6804 21.3562 20.6804Z" fill="#FF0000"/>
<path d="M19.1147 24.582H18.6481C18.6396 24.5217 18.6222 24.468 18.5959 24.4212C18.5696 24.3736 18.5359 24.3331 18.4947 24.2997C18.4535 24.2663 18.4059 24.2408 18.3519 24.223C18.2987 24.2053 18.2408 24.1964 18.1783 24.1964C18.0653 24.1964 17.967 24.2244 17.8832 24.2805C17.7994 24.3359 17.7344 24.4169 17.6882 24.5234C17.642 24.6293 17.619 24.7578 17.619 24.9091C17.619 25.0646 17.642 25.1953 17.6882 25.3011C17.7351 25.407 17.8004 25.4869 17.8842 25.5408C17.968 25.5948 18.065 25.6218 18.1751 25.6218C18.2369 25.6218 18.294 25.6136 18.3466 25.5973C18.3999 25.581 18.4471 25.5572 18.4883 25.5259C18.5295 25.494 18.5636 25.4553 18.5906 25.4098C18.6183 25.3643 18.6374 25.3125 18.6481 25.2543L19.1147 25.2564C19.1026 25.3565 19.0724 25.4531 19.0241 25.5462C18.9766 25.6385 18.9123 25.7212 18.8313 25.7944C18.7511 25.8668 18.6552 25.9244 18.5437 25.967C18.4329 26.0089 18.3075 26.0298 18.1676 26.0298C17.973 26.0298 17.799 25.9858 17.6456 25.8977C17.4929 25.8097 17.3722 25.6822 17.2834 25.5153C17.1953 25.3484 17.1513 25.1463 17.1513 24.9091C17.1513 24.6712 17.196 24.4688 17.2855 24.3018C17.375 24.1349 17.4964 24.0078 17.6499 23.9205C17.8033 23.8324 17.9759 23.7884 18.1676 23.7884C18.294 23.7884 18.4112 23.8061 18.5192 23.8416C18.6278 23.8771 18.7241 23.929 18.8079 23.9972C18.8917 24.0646 18.9599 24.1474 19.0124 24.2454C19.0657 24.3434 19.0998 24.4556 19.1147 24.582ZM20.1763 26.032C20.0108 26.032 19.8677 25.9968 19.747 25.9265C19.627 25.8555 19.5343 25.7567 19.4689 25.6303C19.4036 25.5032 19.3709 25.3558 19.3709 25.1882C19.3709 25.0192 19.4036 24.8714 19.4689 24.745C19.5343 24.6179 19.627 24.5192 19.747 24.4489C19.8677 24.3778 20.0108 24.3423 20.1763 24.3423C20.3418 24.3423 20.4846 24.3778 20.6046 24.4489C20.7253 24.5192 20.8184 24.6179 20.8837 24.745C20.949 24.8714 20.9817 25.0192 20.9817 25.1882C20.9817 25.3558 20.949 25.5032 20.8837 25.6303C20.8184 25.7567 20.7253 25.8555 20.6046 25.9265C20.4846 25.9968 20.3418 26.032 20.1763 26.032ZM20.1784 25.6804C20.2537 25.6804 20.3166 25.6591 20.367 25.6165C20.4174 25.5732 20.4554 25.5142 20.481 25.4396C20.5073 25.3651 20.5204 25.2802 20.5204 25.185C20.5204 25.0898 20.5073 25.005 20.481 24.9304C20.4554 24.8558 20.4174 24.7969 20.367 24.7536C20.3166 24.7102 20.2537 24.6886 20.1784 24.6886C20.1025 24.6886 20.0385 24.7102 19.9867 24.7536C19.9355 24.7969 19.8968 24.8558 19.8706 24.9304C19.845 25.005 19.8322 25.0898 19.8322 25.185C19.8322 25.2802 19.845 25.3651 19.8706 25.4396C19.8968 25.5142 19.9355 25.5732 19.9867 25.6165C20.0385 25.6591 20.1025 25.6804 20.1784 25.6804ZM21.7306 25.054V26H21.2768V24.3636H21.7093V24.6523H21.7285C21.7647 24.5572 21.8255 24.4819 21.9107 24.4265C21.9959 24.3704 22.0993 24.3423 22.2207 24.3423C22.3343 24.3423 22.4334 24.3672 22.5179 24.4169C22.6025 24.4666 22.6681 24.5376 22.715 24.63C22.7619 24.7216 22.7853 24.831 22.7853 24.9581V26H22.3315V25.0391C22.3322 24.9389 22.3066 24.8608 22.2548 24.8047C22.2029 24.7479 22.1316 24.7195 22.0407 24.7195C21.9796 24.7195 21.9256 24.7326 21.8787 24.7589C21.8326 24.7852 21.7963 24.8235 21.7701 24.8739C21.7445 24.9237 21.7314 24.9837 21.7306 25.054ZM24.023 24.3636V24.7045H23.0131V24.3636H24.023ZM23.2442 26V24.2454C23.2442 24.1268 23.2673 24.0284 23.3135 23.9503C23.3604 23.8722 23.4243 23.8136 23.5052 23.7745C23.5862 23.7354 23.6782 23.7159 23.7812 23.7159C23.8508 23.7159 23.9143 23.7212 23.9719 23.7319C24.0301 23.7425 24.0734 23.7521 24.1018 23.7607L24.0209 24.1016C24.0031 24.0959 23.9811 24.0906 23.9548 24.0856C23.9292 24.0806 23.903 24.0781 23.876 24.0781C23.8092 24.0781 23.7627 24.0938 23.7364 24.125C23.7101 24.1555 23.697 24.1985 23.697 24.2539V26H23.2442ZM24.3002 26V24.3636H24.7541V26H24.3002ZM24.5282 24.1527C24.4608 24.1527 24.4029 24.1303 24.3546 24.0856C24.307 24.0401 24.2832 23.9858 24.2832 23.9226C24.2832 23.8601 24.307 23.8065 24.3546 23.7617C24.4029 23.7163 24.4608 23.6935 24.5282 23.6935C24.5957 23.6935 24.6532 23.7163 24.7008 23.7617C24.7491 23.8065 24.7733 23.8601 24.7733 23.9226C24.7733 23.9858 24.7491 24.0401 24.7008 24.0856C24.6532 24.1303 24.5957 24.1527 24.5282 24.1527ZM25.8548 26.6477C25.7078 26.6477 25.5818 26.6275 25.4767 26.587C25.3722 26.5472 25.2892 26.4929 25.2274 26.424C25.1656 26.3551 25.1254 26.2777 25.107 26.1918L25.5267 26.1353C25.5395 26.168 25.5597 26.1985 25.5874 26.2269C25.6151 26.2553 25.6517 26.2781 25.6972 26.2951C25.7433 26.3129 25.7994 26.3217 25.8655 26.3217C25.9642 26.3217 26.0455 26.2976 26.1095 26.2493C26.1741 26.2017 26.2064 26.1218 26.2064 26.0096V25.7102H26.1872C26.1673 25.7557 26.1375 25.7987 26.0977 25.8391C26.058 25.8796 26.0068 25.9126 25.9443 25.9382C25.8818 25.9638 25.8073 25.9766 25.7206 25.9766C25.5977 25.9766 25.4859 25.9482 25.385 25.8913C25.2849 25.8338 25.205 25.7461 25.1453 25.6282C25.0864 25.5096 25.0569 25.3597 25.0569 25.1786C25.0569 24.9933 25.0871 24.8384 25.1475 24.7141C25.2078 24.5898 25.2881 24.4968 25.3882 24.435C25.4891 24.3732 25.5995 24.3423 25.7195 24.3423C25.8112 24.3423 25.8879 24.358 25.9497 24.3892C26.0115 24.4197 26.0612 24.4581 26.0988 24.5043C26.1372 24.5497 26.1666 24.5945 26.1872 24.6385H26.2043V24.3636H26.6549V26.016C26.6549 26.1552 26.6208 26.2717 26.5526 26.3654C26.4845 26.4592 26.39 26.5295 26.2693 26.5763C26.1492 26.6239 26.0111 26.6477 25.8548 26.6477ZM25.8644 25.6357C25.9376 25.6357 25.9994 25.6175 26.0498 25.5813C26.1009 25.5444 26.14 25.4918 26.167 25.4237C26.1947 25.3548 26.2085 25.2724 26.2085 25.1765C26.2085 25.0806 26.195 24.9975 26.1681 24.9272C26.1411 24.8562 26.102 24.8011 26.0509 24.7621C25.9997 24.723 25.9376 24.7035 25.8644 24.7035C25.7899 24.7035 25.727 24.7237 25.6759 24.7642C25.6247 24.804 25.586 24.8594 25.5597 24.9304C25.5335 25.0014 25.5203 25.0835 25.5203 25.1765C25.5203 25.271 25.5335 25.3526 25.5597 25.4215C25.5867 25.4897 25.6254 25.5426 25.6759 25.5803C25.727 25.6172 25.7899 25.6357 25.8644 25.6357Z" fill="#FF0000"/>
</svg>
