<svg width="40" height="30" viewBox="0 0 40 30" fill="none" xmlns="http://www.w3.org/2000/svg">
<path d="M3.72093 30C2.69767 30 1.82171 29.6328 1.09302 28.8984C0.364341 28.1641 0 27.2812 0 26.25V3.75C0 2.71875 0.364341 1.83594 1.09302 1.10156C1.82171 0.367187 2.69767 0 3.72093 0H14.8837L18.6047 3.75H33.4884C34.5116 3.75 35.3876 4.11719 36.1163 4.85156C36.845 5.58594 37.2093 6.46875 37.2093 7.5H17.0698L13.3488 3.75H3.72093V26.25L8.18605 11.25H40L35.2093 27.3281C34.9612 28.1406 34.5039 28.7891 33.8372 29.2734C33.1705 29.7578 32.4341 30 31.6279 30H3.72093ZM7.62791 26.25H31.6279L34.9767 15H10.9767L7.62791 26.25Z" fill="black"/>
</svg>
