<svg width="50" height="50" viewBox="0 0 50 50" fill="none" xmlns="http://www.w3.org/2000/svg">
<path d="M17.9375 38C17.2156 38 16.5977 37.7171 16.0836 37.1514C15.5695 36.5856 15.3125 35.9056 15.3125 35.1111V16.3333H14V13.4444H20.5625V12H28.4375V13.4444H35V16.3333H33.6875V35.1111C33.6875 35.9056 33.4305 36.5856 32.9164 37.1514C32.4023 37.7171 31.7844 38 31.0625 38H17.9375ZM31.0625 16.3333H17.9375V35.1111H31.0625V16.3333ZM20.5625 32.2222H23.1875V19.2222H20.5625V32.2222ZM25.8125 32.2222H28.4375V19.2222H25.8125V32.2222Z" fill="#797979"/>
<circle cx="25" cy="25" r="22.5" stroke="#797979" stroke-width="5"/>
</svg>
