<svg width="20" height="30" viewBox="0 0 20 30" fill="none" xmlns="http://www.w3.org/2000/svg">
<path d="M2.5 10H13.75V7.14286C13.75 5.95238 13.3854 4.94048 12.6562 4.10714C11.9271 3.27381 11.0417 2.85714 10 2.85714C8.95833 2.85714 8.07292 3.27381 7.34375 4.10714C6.61458 4.94048 6.25 5.95238 6.25 7.14286H3.75C3.75 5.16667 4.35938 3.48214 5.57812 2.08929C6.79688 0.696429 8.27083 0 10 0C11.7292 0 13.2031 0.696429 14.4219 2.08929C15.6406 3.48214 16.25 5.16667 16.25 7.14286V10H17.5C18.1875 10 18.776 10.2798 19.2656 10.8393C19.7552 11.3988 20 12.0714 20 12.8571V27.1429C20 27.9286 19.7552 28.6012 19.2656 29.1607C18.776 29.7202 18.1875 30 17.5 30H2.5C1.8125 30 1.22396 29.7202 0.734375 29.1607C0.244792 28.6012 0 27.9286 0 27.1429V12.8571C0 12.0714 0.244792 11.3988 0.734375 10.8393C1.22396 10.2798 1.8125 10 2.5 10ZM2.5 27.1429H17.5V12.8571H2.5V27.1429ZM10 22.8571C10.6875 22.8571 11.276 22.5774 11.7656 22.0179C12.2552 21.4583 12.5 20.7857 12.5 20C12.5 19.2143 12.2552 18.5417 11.7656 17.9821C11.276 17.4226 10.6875 17.1429 10 17.1429C9.3125 17.1429 8.72396 17.4226 8.23438 17.9821C7.74479 18.5417 7.5 19.2143 7.5 20C7.5 20.7857 7.74479 21.4583 8.23438 22.0179C8.72396 22.5774 9.3125 22.8571 10 22.8571Z" fill="black"/>
</svg>
