<svg width="50" height="50" viewBox="0 0 50 50" fill="none" xmlns="http://www.w3.org/2000/svg">
<circle cx="25" cy="25" r="25" fill="#FF9078"/>
<path d="M39.7608 40.5263L34.695 35.943C33.9972 36.347 33.2576 36.6942 32.4761 36.9846C31.6946 37.275 30.8852 37.5086 30.0479 37.6854V34.5793C30.4386 34.4531 30.8224 34.3268 31.1992 34.2005C31.576 34.0743 31.9318 33.9228 32.2668 33.746L26.6986 28.7081V36.5869L18.3254 29.0112H11.6268V19.9202H16.9857L8.94739 12.6475L11.2919 10.5263L42.1053 38.4051L39.7608 40.5263ZM39.4259 31.7384L36.9976 29.5415C37.4721 28.7586 37.828 27.9379 38.0652 27.0793C38.3025 26.2207 38.4211 25.3369 38.4211 24.4278C38.4211 22.0541 37.6535 19.9329 36.1184 18.0642C34.5834 16.1955 32.5598 14.9329 30.0479 14.2763V11.1702C33.5088 11.8773 36.3278 13.4619 38.5048 15.924C40.6818 18.3862 41.7704 21.2207 41.7704 24.4278C41.7704 25.7662 41.568 27.0541 41.1633 28.2915C40.7586 29.5288 40.1794 30.6778 39.4259 31.7384ZM33.8158 26.6627L30.0479 23.2536V18.3293C31.3597 18.8849 32.3854 19.7182 33.125 20.8293C33.8647 21.9404 34.2345 23.1526 34.2345 24.4657C34.2345 24.8445 34.1996 25.217 34.1298 25.5831C34.06 25.9493 33.9554 26.3091 33.8158 26.6627ZM26.6986 20.2233L22.3445 16.2839L26.6986 12.3445V20.2233ZM23.3493 29.2384V25.6778L20.3349 22.9505H14.9761V25.9809H19.7488L23.3493 29.2384Z" fill="black" fill-opacity="0.58"/>
</svg>
