<svg width="22" height="22" viewBox="0 0 22 22" fill="none" xmlns="http://www.w3.org/2000/svg">
<path d="M11 22C10.3583 22 9.81597 21.6873 9.37292 21.0618C8.92986 20.4363 8.70833 19.6706 8.70833 18.7647C8.70833 17.8588 8.92986 17.0931 9.37292 16.4676C9.81597 15.8422 10.3583 15.5294 11 15.5294C11.6417 15.5294 12.184 15.8422 12.6271 16.4676C13.0701 17.0931 13.2917 17.8588 13.2917 18.7647C13.2917 19.6706 13.0701 20.4363 12.6271 21.0618C12.184 21.6873 11.6417 22 11 22ZM5.82083 14.6882L3.89583 11.9059C4.79722 10.6333 5.85521 9.625 7.06979 8.88088C8.28438 8.13677 9.59444 7.76471 11 7.76471C12.4056 7.76471 13.7156 8.14216 14.9302 8.89706C16.1448 9.65196 17.2028 10.6765 18.1042 11.9706L16.1792 14.6882C15.5069 13.7392 14.7278 12.9951 13.8417 12.4559C12.9556 11.9167 12.0083 11.6471 11 11.6471C9.99167 11.6471 9.04444 11.9167 8.15833 12.4559C7.27222 12.9951 6.49306 13.7392 5.82083 14.6882ZM1.925 9.18824L0 6.47059C1.40556 4.44314 3.04792 2.85784 4.92708 1.71471C6.80625 0.571569 8.83056 0 11 0C13.1694 0 15.1938 0.571569 17.0729 1.71471C18.9521 2.85784 20.5944 4.44314 22 6.47059L20.075 9.18824C18.8986 7.52745 17.5351 6.22794 15.9844 5.28971C14.4337 4.35147 12.7722 3.88235 11 3.88235C9.22778 3.88235 7.56632 4.35147 6.01563 5.28971C4.46493 6.22794 3.10139 7.52745 1.925 9.18824Z" fill="#04EE1B"/>
</svg>
