<svg width="49" height="41" viewBox="0 0 49 41" fill="none" xmlns="http://www.w3.org/2000/svg">
<path d="M4.55814 41C3.30465 41 2.23159 40.4982 1.33895 39.4945C0.446318 38.4909 0 37.2844 0 35.875V5.125C0 3.71562 0.446318 2.50911 1.33895 1.50547C2.23159 0.501823 3.30465 0 4.55814 0H18.2326L22.7907 5.125H41.0233C42.2767 5.125 43.3498 5.62682 44.2424 6.63047C45.1351 7.63411 45.5814 8.84062 45.5814 10.25H20.9105L16.3523 5.125H4.55814V35.875L10.0279 15.375H49L43.1314 37.3484C42.8275 38.4589 42.2672 39.3451 41.4506 40.007C40.6339 40.669 39.7318 41 38.7442 41H4.55814ZM9.34419 35.875H38.7442L42.8465 20.5H13.4465L9.34419 35.875Z" fill="black"/>
</svg>
