<svg width="30" height="30" viewBox="0 0 30 30" fill="none" xmlns="http://www.w3.org/2000/svg">
<g filter="url(#filter0_d_17_51)">
<path d="M22.1042 22L13.4875 11.5C12.7694 11.7037 12.101 12.0093 11.4823 12.4167C10.8635 12.8241 10.3097 13.3333 9.82083 13.9444L7.89583 11.5556C8.38472 10.963 8.91181 10.4444 9.47708 10C10.0424 9.55556 10.6458 9.16667 11.2875 8.83333L9.225 6.33333C8.59861 6.72222 8.01424 7.15278 7.47188 7.625C6.92951 8.09722 6.41389 8.62963 5.925 9.22222L4 6.83333C4.48889 6.24074 4.99688 5.70833 5.52396 5.23611C6.05104 4.76389 6.6125 4.31481 7.20833 3.88889L5.28333 1.55556L6.56667 0L23.4333 20.4444L22.1042 22ZM15 20.2222C14.3583 20.2222 13.816 19.9491 13.3729 19.4028C12.9299 18.8565 12.7083 18.2037 12.7083 17.4444C12.7083 16.6667 12.9299 16.0093 13.3729 15.4722C13.816 14.9352 14.3583 14.6667 15 14.6667C15.6417 14.6667 16.184 14.9352 16.6271 15.4722C17.0701 16.0093 17.2917 16.6667 17.2917 17.4444C17.2917 18.2037 17.0701 18.8565 16.6271 19.4028C16.184 19.9491 15.6417 20.2222 15 20.2222ZM20.4083 13.6111L19.7438 12.8056L19.0792 12L15.7792 8C17.0167 8.14815 18.174 8.52778 19.251 9.13889C20.3281 9.75 21.2792 10.5556 22.1042 11.5556L20.4083 13.6111ZM24.075 9.22222C22.8986 7.7963 21.5351 6.68056 19.9844 5.875C18.4337 5.06944 16.7722 4.66667 15 4.66667C14.6792 4.66667 14.3698 4.68056 14.0719 4.70833C13.774 4.73611 13.4722 4.77778 13.1667 4.83333L10.8292 2C11.5014 1.77778 12.1851 1.61111 12.8802 1.5C13.5753 1.38889 14.2819 1.33333 15 1.33333C17.1694 1.33333 19.1938 1.82407 21.0729 2.80556C22.9521 3.78704 24.5944 5.12963 26 6.83333L24.075 9.22222Z" fill="#F92D00"/>
</g>
<defs>
<filter id="filter0_d_17_51" x="0" y="0" width="30" height="30" filterUnits="userSpaceOnUse" color-interpolation-filters="sRGB">
<feFlood flood-opacity="0" result="BackgroundImageFix"/>
<feColorMatrix in="SourceAlpha" type="matrix" values="0 0 0 0 0 0 0 0 0 0 0 0 0 0 0 0 0 0 127 0" result="hardAlpha"/>
<feOffset dy="4"/>
<feGaussianBlur stdDeviation="2"/>
<feComposite in2="hardAlpha" operator="out"/>
<feColorMatrix type="matrix" values="0 0 0 0 0 0 0 0 0 0 0 0 0 0 0 0 0 0 0.25 0"/>
<feBlend mode="normal" in2="BackgroundImageFix" result="effect1_dropShadow_17_51"/>
<feBlend mode="normal" in="SourceGraphic" in2="effect1_dropShadow_17_51" result="shape"/>
</filter>
</defs>
</svg>
