<svg width="30" height="19" viewBox="0 0 30 19" fill="none" xmlns="http://www.w3.org/2000/svg">
<path d="M4.5 19C4.075 19 3.71875 18.8179 3.43125 18.4537C3.14375 18.0896 3 17.6383 3 17.1V13.3H0V5.7H3V1.9C3 1.36167 3.14375 0.910417 3.43125 0.54625C3.71875 0.182083 4.075 0 4.5 0H28.5C28.925 0 29.2813 0.182083 29.5688 0.54625C29.8563 0.910417 30 1.36167 30 1.9V17.1C30 17.6383 29.8563 18.0896 29.5688 18.4537C29.2813 18.8179 28.925 19 28.5 19H4.5ZM6 15.2H25.5V3.8H6V15.2Z" fill="#B00101"/>
<rect x="24" y="2" width="4" height="16" fill="#B00101"/>
</svg>
